<?xml version="1.0" encoding="UTF-8" standalone="no"?><svg xmlns="http://www.w3.org/2000/svg" xmlns:xlink="http://www.w3.org/1999/xlink" contentStyleType="text/css" height="666px" preserveAspectRatio="none" style="width:879px;height:666px;background:#FFFFFF;" version="1.1" viewBox="0 0 879 666" width="879px" zoomAndPan="magnify"><defs/><g><rect fill="#F1F1F1" height="38.6211" rx="12.5" ry="12.5" style="stroke:#181818;stroke-width:1.5;" width="219" x="10" y="313.1055"/><text fill="#000000" font-family="sans-serif" font-size="14" lengthAdjust="spacing" textLength="199" x="20" y="338.2129">Учёт персональных финансов</text><rect fill="#F1F1F1" height="38.6211" rx="12.5" ry="12.5" style="stroke:#181818;stroke-width:1.5;" width="105" x="279" y="78.6211"/><text fill="#000000" font-family="sans-serif" font-size="14" lengthAdjust="spacing" textLength="85" x="289" y="103.7285">Внешний API</text><rect fill="#F1F1F1" height="38.6211" rx="12.5" ry="12.5" style="stroke:#181818;stroke-width:1.5;" width="159" x="434" y="49.3105"/><text fill="#000000" font-family="sans-serif" font-size="14" lengthAdjust="spacing" textLength="139" x="444" y="74.418">Запрос курсов валют</text><rect fill="#F1F1F1" height="38.6211" rx="12.5" ry="12.5" style="stroke:#181818;stroke-width:1.5;" width="112" x="643" y="20"/><text fill="#000000" font-family="sans-serif" font-size="14" lengthAdjust="spacing" textLength="92" x="653" y="45.1074">сервис ЦБ РФ</text><path d="M593,68.6211 L603,68.6211 C618,68.6211 618,39.3105 633,39.3105 L643,39.3105 " fill="none" style="stroke:#181818;stroke-width:1.0;"/><rect fill="#F1F1F1" height="38.6211" rx="12.5" ry="12.5" style="stroke:#181818;stroke-width:1.5;" width="47" x="643" y="78.6211"/><text fill="#000000" font-family="sans-serif" font-size="14" lengthAdjust="spacing" textLength="27" x="653" y="103.7285">XML</text><path d="M593,68.6211 L603,68.6211 C618,68.6211 618,97.9316 633,97.9316 L643,97.9316 " fill="none" style="stroke:#181818;stroke-width:1.0;"/><path d="M384,97.9316 L394,97.9316 C409,97.9316 409,68.6211 424,68.6211 L434,68.6211 " fill="none" style="stroke:#181818;stroke-width:1.0;"/><rect fill="#F1F1F1" height="38.6211" rx="12.5" ry="12.5" style="stroke:#181818;stroke-width:1.5;" width="123" x="434" y="137.2422"/><text fill="#000000" font-family="sans-serif" font-size="14" lengthAdjust="spacing" textLength="103" x="444" y="162.3496">Ответственный</text><rect fill="#F1F1F1" height="38.6211" rx="12.5" ry="12.5" style="stroke:#181818;stroke-width:1.5;" width="74" x="607" y="137.2422"/><text fill="#000000" font-family="sans-serif" font-size="14" lengthAdjust="spacing" textLength="54" x="617" y="162.3496">Алексей</text><path d="M557,156.5527 L567,156.5527 C582,156.5527 582,156.5527 597,156.5527 L607,156.5527 " fill="none" style="stroke:#181818;stroke-width:1.0;"/><path d="M384,97.9316 L394,97.9316 C409,97.9316 409,156.5527 424,156.5527 L434,156.5527 " fill="none" style="stroke:#181818;stroke-width:1.0;"/><path d="M229,332.416 L239,332.416 C254,332.416 254,97.9316 269,97.9316 L279,97.9316 " fill="none" style="stroke:#181818;stroke-width:1.0;"/><rect fill="#F1F1F1" height="38.6211" rx="12.5" ry="12.5" style="stroke:#181818;stroke-width:1.5;" width="124" x="279" y="269.1396"/><text fill="#000000" font-family="sans-serif" font-size="14" lengthAdjust="spacing" textLength="104" x="289" y="294.2471">Внутренний API</text><rect fill="#F1F1F1" height="38.6211" rx="12.5" ry="12.5" style="stroke:#181818;stroke-width:1.5;" width="123" x="453" y="195.8633"/><text fill="#000000" font-family="sans-serif" font-size="14" lengthAdjust="spacing" textLength="103" x="463" y="220.9707">Модель данных</text><rect fill="#F1F1F1" height="38.6211" rx="12.5" ry="12.5" style="stroke:#181818;stroke-width:1.5;" width="123" x="626" y="195.8633"/><text fill="#000000" font-family="sans-serif" font-size="14" lengthAdjust="spacing" textLength="103" x="636" y="220.9707">Ответственный</text><rect fill="#F1F1F1" height="38.6211" rx="12.5" ry="12.5" style="stroke:#181818;stroke-width:1.5;" width="68" x="799" y="195.8633"/><text fill="#000000" font-family="sans-serif" font-size="14" lengthAdjust="spacing" textLength="48" x="809" y="220.9707">Галина</text><path d="M749,215.1738 L759,215.1738 C774,215.1738 774,215.1738 789,215.1738 L799,215.1738 " fill="none" style="stroke:#181818;stroke-width:1.0;"/><path d="M576,215.1738 L586,215.1738 C601,215.1738 601,215.1738 616,215.1738 L626,215.1738 " fill="none" style="stroke:#181818;stroke-width:1.0;"/><path d="M403,288.4502 L413,288.4502 C428,288.4502 428,215.1738 443,215.1738 L453,215.1738 " fill="none" style="stroke:#181818;stroke-width:1.0;"/><rect fill="#F1F1F1" height="38.6211" rx="12.5" ry="12.5" style="stroke:#181818;stroke-width:1.5;" width="92" x="453" y="283.7949"/><text fill="#000000" font-family="sans-serif" font-size="14" lengthAdjust="spacing" textLength="72" x="463" y="308.9023">Связь с БД</text><rect fill="#F1F1F1" height="38.6211" rx="12.5" ry="12.5" style="stroke:#181818;stroke-width:1.5;" width="138" x="595" y="254.4844"/><text fill="#000000" font-family="sans-serif" font-size="14" lengthAdjust="spacing" textLength="118" x="605" y="279.5918">ADO.Net + Dapper</text><path d="M545,303.1055 L555,303.1055 C570,303.1055 570,273.7949 585,273.7949 L595,273.7949 " fill="none" style="stroke:#181818;stroke-width:1.0;"/><rect fill="#F1F1F1" height="38.6211" rx="12.5" ry="12.5" style="stroke:#181818;stroke-width:1.5;" width="123" x="595" y="313.1055"/><text fill="#000000" font-family="sans-serif" font-size="14" lengthAdjust="spacing" textLength="103" x="605" y="338.2129">Ответственный</text><rect fill="#F1F1F1" height="38.6211" rx="12.5" ry="12.5" style="stroke:#181818;stroke-width:1.5;" width="61" x="768" y="313.1055"/><text fill="#000000" font-family="sans-serif" font-size="14" lengthAdjust="spacing" textLength="41" x="778" y="338.2129">Дарья</text><path d="M718,332.416 L728,332.416 C743,332.416 743,332.416 758,332.416 L768,332.416 " fill="none" style="stroke:#181818;stroke-width:1.0;"/><path d="M545,303.1055 L555,303.1055 C570,303.1055 570,332.416 585,332.416 L595,332.416 " fill="none" style="stroke:#181818;stroke-width:1.0;"/><path d="M403,288.4502 L413,288.4502 C428,288.4502 428,303.1055 443,303.1055 L453,303.1055 " fill="none" style="stroke:#181818;stroke-width:1.0;"/><rect fill="#F1F1F1" height="38.6211" rx="12.5" ry="12.5" style="stroke:#181818;stroke-width:1.5;" width="41" x="453" y="342.416"/><text fill="#000000" font-family="sans-serif" font-size="14" lengthAdjust="spacing" textLength="21" x="463" y="367.5234">API</text><path d="M403,288.4502 L413,288.4502 C428,288.4502 428,361.7266 443,361.7266 L453,361.7266 " fill="none" style="stroke:#181818;stroke-width:1.0;"/><path d="M229,332.416 L239,332.416 C254,332.416 254,288.4502 269,288.4502 L279,288.4502 " fill="none" style="stroke:#181818;stroke-width:1.0;"/><rect fill="#F1F1F1" height="38.6211" rx="12.5" ry="12.5" style="stroke:#181818;stroke-width:1.5;" width="38" x="279" y="445.0029"/><text fill="#000000" font-family="sans-serif" font-size="14" lengthAdjust="spacing" textLength="18" x="289" y="470.1104">БД</text><rect fill="#F1F1F1" height="38.6211" rx="12.5" ry="12.5" style="stroke:#181818;stroke-width:1.5;" width="63" x="367" y="401.0371"/><text fill="#000000" font-family="sans-serif" font-size="14" lengthAdjust="spacing" textLength="43" x="377" y="426.1445">SQLite</text><path d="M317,464.3135 L327,464.3135 C342,464.3135 342,420.3477 357,420.3477 L367,420.3477 " fill="none" style="stroke:#181818;stroke-width:1.0;"/><rect fill="#F1F1F1" height="38.6211" rx="12.5" ry="12.5" style="stroke:#181818;stroke-width:1.5;" width="123" x="367" y="459.6582"/><text fill="#000000" font-family="sans-serif" font-size="14" lengthAdjust="spacing" textLength="103" x="377" y="484.7656">Ответственные</text><rect fill="#F1F1F1" height="38.6211" rx="12.5" ry="12.5" style="stroke:#181818;stroke-width:1.5;" width="73" x="540" y="430.3477"/><text fill="#000000" font-family="sans-serif" font-size="14" lengthAdjust="spacing" textLength="53" x="550" y="455.4551">Евгений</text><path d="M490,478.9688 L500,478.9688 C515,478.9688 515,449.6582 530,449.6582 L540,449.6582 " fill="none" style="stroke:#181818;stroke-width:1.0;"/><rect fill="#F1F1F1" height="38.6211" rx="12.5" ry="12.5" style="stroke:#181818;stroke-width:1.5;" width="69" x="540" y="488.9688"/><text fill="#000000" font-family="sans-serif" font-size="14" lengthAdjust="spacing" textLength="49" x="550" y="514.0762">Михаил</text><path d="M490,478.9688 L500,478.9688 C515,478.9688 515,508.2793 530,508.2793 L540,508.2793 " fill="none" style="stroke:#181818;stroke-width:1.0;"/><path d="M317,464.3135 L327,464.3135 C342,464.3135 342,478.9688 357,478.9688 L367,478.9688 " fill="none" style="stroke:#181818;stroke-width:1.0;"/><path d="M229,332.416 L239,332.416 C254,332.416 254,464.3135 269,464.3135 L279,464.3135 " fill="none" style="stroke:#181818;stroke-width:1.0;"/><rect fill="#F1F1F1" height="38.6211" rx="12.5" ry="12.5" style="stroke:#181818;stroke-width:1.5;" width="43" x="279" y="576.9004"/><text fill="#000000" font-family="sans-serif" font-size="14" lengthAdjust="spacing" textLength="23" x="289" y="602.0078">GUI</text><rect fill="#F1F1F1" height="38.6211" rx="12.5" ry="12.5" style="stroke:#181818;stroke-width:1.5;" width="51" x="372" y="547.5898"/><text fill="#000000" font-family="sans-serif" font-size="14" lengthAdjust="spacing" textLength="31" x="382" y="572.6973">WPF</text><rect fill="#F1F1F1" height="38.6211" rx="12.5" ry="12.5" style="stroke:#181818;stroke-width:1.5;" width="60" x="473" y="547.5898"/><text fill="#000000" font-family="sans-serif" font-size="14" lengthAdjust="spacing" textLength="40" x="483" y="572.6973">MVVM</text><path d="M423,566.9004 L433,566.9004 C448,566.9004 448,566.9004 463,566.9004 L473,566.9004 " fill="none" style="stroke:#181818;stroke-width:1.0;"/><path d="M322,596.2109 L332,596.2109 C347,596.2109 347,566.9004 362,566.9004 L372,566.9004 " fill="none" style="stroke:#181818;stroke-width:1.0;"/><rect fill="#F1F1F1" height="38.6211" rx="12.5" ry="12.5" style="stroke:#181818;stroke-width:1.5;" width="123" x="372" y="606.2109"/><text fill="#000000" font-family="sans-serif" font-size="14" lengthAdjust="spacing" textLength="103" x="382" y="631.3184">Ответственный</text><rect fill="#F1F1F1" height="38.6211" rx="12.5" ry="12.5" style="stroke:#181818;stroke-width:1.5;" width="59" x="545" y="606.2109"/><text fill="#000000" font-family="sans-serif" font-size="14" lengthAdjust="spacing" textLength="39" x="555" y="631.3184">Назар</text><path d="M495,625.5215 L505,625.5215 C520,625.5215 520,625.5215 535,625.5215 L545,625.5215 " fill="none" style="stroke:#181818;stroke-width:1.0;"/><path d="M322,596.2109 L332,596.2109 C347,596.2109 347,625.5215 362,625.5215 L372,625.5215 " fill="none" style="stroke:#181818;stroke-width:1.0;"/><path d="M229,332.416 L239,332.416 C254,332.416 254,596.2109 269,596.2109 L279,596.2109 " fill="none" style="stroke:#181818;stroke-width:1.0;"/><!--SRC=[fL9DRzD04BtxLyon3I9Aqe94JYqDLAGsJHibS5sQ9RBKh2rd7ObROuX0QaK9574f20JY70MYketI_eMPVyJuen0CXmeiorhlcpVlpTjTwMhXwOwjMXtX6Zd0p_ISXXG0Nk24zgYFvpZ34Kxf06UqJmEWPnZ6MxCO71l03nDVy-Q4Nl0tn5DOhTsBWHHyn_KNj8Vdr0SyewTfvp7WE6x-aeAVvGc5STPdE8meNt48-16_P8eUMkQyoWSAc32XWFh9YismQJpDqF0LJXayYpHIC1c0ZGKi6lF-DiOnU_xECAS1l1Wb_McGxNyr8sdncoY19DDvhKyufaCyOQKeW24UPKHMAvlv-rB3DQW8rvNUVtaumX4VoG4TpZcud3ttkteEwbkchULLWfzaJRrby5iCXt-UoZ6VzO33276Q2gytvkD_KBkReLZDflLF5-0zovn4Cnihagz-UlsDsgvGkc6Pq9DUrtOK5FEbGcafNrYm-ASg51HkGQbONk9t6Qpw1aJmeh6mNZEXw_ZUZeIMtTMU_SZNp5yqgg8dODjNskx8CcowKbKh6vSRS4VrRCzH7QcqKMrQlmfkBb-_RMkeIu-T00zPaO-5lwkPiUEqRDKkmvfRBDqe6gPGRL-qkRdd6siED_QUb66xyGC0]--></g></svg>